# xmcd
#
# Track frame offsets:
#	150
#	22000
#	40920
#	55568
#	84895
#	100650
#	118818
#	143840
#	168112
#	189787
#	206929
#	228969
#
# Disc length: 3291 seconds
#
# Revision: 1
# Processed by: cddbd v1.5.1PL0 Copyright (c) Steve Scherf et al.
# Submitted via: audiograbber 1.82.01
#
DISCID=910cd90c
DTITLE=John Lee Hooker - Chill Out
DYEAR=1995
DGENRE=
TTITLE0=Chill out
TTITLE1=Deep blue see
TTITLE2=Kiddio
TTITLE3=Medley
TTITLE4=One bourbone, one scotch, one beer
TTITLE5=Tupelo
TTITLE6=Woman on my mind
TTITLE7=Annie Mae
TTITLE8=Too young
TTITLE9=Talkin' the blues
TTITLE10=If you've never been in love
TTITLE11=We'll meet again
EXTD=
EXTT0=
EXTT1=
EXTT2=
EXTT3=
EXTT4=
EXTT5=
EXTT6=
EXTT7=
EXTT8=
EXTT9=
EXTT10=
EXTT11=
PLAYORDER=
